Coordinates
version=1
nRows=26
nColumns=22
inDegrees=yes

Units are S.I. units (second, meters, Newtons, ...)
If the header above contains a line with 'inDegrees', this indicates whether rotational values are in degrees (yes) or radians (no).

endheader
time	pelvis_tilt	pelvis_list	pelvis_rotation	pelvis_tx	pelvis_ty	pelvis_tz	hip_flexion_r	hip_adduction_r	hip_rotation_r	knee_angle_r	ankle_angle_r	subtalar_angle_r	hip_flexion_l	hip_adduction_l	hip_rotation_l	knee_angle_l	ankle_angle_l	subtalar_angle_l	lumbar_extension	lumbar_bending	lumbar_rotation
      0.01000000	     -3.86291737	     -8.00527163	      2.20972955	     -1.06107626	      0.97823523	     -0.26685435	      6.69052842	      8.25594392	     -1.88779970	    -13.95089789	      7.78222114	     -2.40058069	      3.75174194	     -8.08012491	      2.22334152	     -8.88859007	     11.49507889	     -1.13603995	      3.33069278	      6.97822861	     -5.83841526
      0.02000000	     -3.84136482	     -7.81371753	      2.23105064	     -1.06090619	      0.97802489	     -0.26702955	      6.69525707	      8.05188134	     -2.39778863	    -14.15621583	      8.36120630	     -1.57037813	      3.67642234	     -7.86204685	      2.23754300	     -8.82793631	     11.47259845	     -1.16889843	      3.31695730	      6.77303333	     -5.84371228
      0.03000000	     -3.81537322	     -7.66084748	      2.25436282	     -1.06081437	      0.97784995	     -0.26720002	      6.68805403	      7.88471075	     -2.78594447	    -14.31642270	      8.85801232	     -0.71983699	      3.64156185	     -7.68545746	      2.24610442	     -8.83677575	     11.49898254	     -1.20916532	      3.28767117	      6.61063344	     -5.83278754
      0.04000000	     -3.80930719	     -7.54196605	      2.27768537	     -1.06071540	      0.97771379	     -0.26735602	      6.69101376	      7.75275436	     -3.06770193	    -14.42490329	      9.19353741	     -0.21050774	      3.60767985	     -7.54706718	      2.25182439	     -8.80216846	     11.48809244	     -1.23275928	      3.28581777	      6.48422252	     -5.86263528
      0.05000000	     -3.80262903	     -7.47662081	      2.29538815	     -1.06067935	      0.97762386	     -0.26748734	      6.69544323	      7.67662976	     -3.24497741	    -14.50045162	      9.41047671	      0.16730119	      3.60085049	     -7.46767962	      2.26242002	     -8.80896886	     11.49767094	     -1.25917825	      3.27699393	      6.41724715	     -5.85733700
      0.06000000	     -3.79183651	     -7.44198298	      2.30893329	     -1.06067232	      0.97757379	     -0.26759341	      6.69314426	      7.63692513	     -3.33779449	    -14.54396295	      9.51228105	      0.22524355	      3.59659357	     -7.42397524	      2.25785704	     -8.82245582	     11.52365140	     -1.26827206	      3.26002674	      6.38359776	     -5.86038129
      0.07000000	     -3.79382739	     -7.44214711	      2.30917121	     -1.06067151	      0.97755437	     -0.26764854	      6.69098225	      7.63874572	     -3.33868541	    -14.54503422	      9.51275116	      0.22584453	      3.59789066	     -7.42140120	      2.25778966	     -8.82147569	     11.52357904	     -1.26829395	      3.25945534	      6.38355759	     -5.86003146
      0.08000000	     -3.80334286	     -7.42488352	      2.33679668	     -1.06067400	      0.97753086	     -0.26777966	      6.70674488	      7.60586729	     -3.40238256	    -14.55490914	      9.55617817	      0.28560784	      3.60856946	     -7.39395498	      2.27511325	     -8.81125110	     11.51470190	     -1.27241962	      3.26966370	      6.36470177	     -5.86068772
      0.09000000	     -3.80284824	     -7.42736651	      2.34492008	     -1.06069805	      0.97753395	     -0.26787412	      6.71180777	      7.60046643	     -3.39579387	    -14.55760567	      9.55329252	      0.28793313	      3.61086556	     -7.39144358	      2.27554606	     -8.80930177	     11.51448346	     -1.27256673	      3.26493272	      6.37087472	     -5.86290851
      0.10000000	     -3.80324552	     -7.43227329	      2.35659171	     -1.06075478	      0.97754102	     -0.26794838	      6.72974644	      7.60041710	     -3.36262538	    -14.57646874	      9.52550235	      0.30022660	      3.61955764	     -7.39201542	      2.29101236	     -8.81278679	     11.51084763	     -1.27298808	      3.25780925	      6.37272044	     -5.88461867
      0.11000000	     -3.80406227	     -7.43610513	      2.36264830	     -1.06077740	      0.97754547	     -0.26804364	      6.73484811	      7.59535377	     -3.35824255	    -14.57461886	      9.52187766	      0.30123471	      3.62285363	     -7.39018473	      2.29137111	     -8.81065167	     11.51072152	     -1.27307631	      3.25511027	      6.37830478	     -5.88432386
      0.12000000	     -3.81329664	     -7.44426319	      2.36941901	     -1.06082677	      0.97754313	     -0.26810940	      6.75492776	      7.59990746	     -3.32159994	    -14.58104238	      9.48026799	      0.30748213	      3.64033965	     -7.39453943	      2.30973986	     -8.81573154	     11.50726333	     -1.27382441	      3.26084206	      6.38097221	     -5.89908202
      0.13000000	     -3.81428164	     -7.44845912	      2.37308721	     -1.06084759	      0.97754216	     -0.26820699	      6.75884029	      7.59638281	     -3.31877734	    -14.57909935	      9.47824690	      0.30735854	      3.64316128	     -7.39231588	      2.30933189	     -8.81443943	     11.50740699	     -1.27407295	      3.25984510	      6.38520110	     -5.89844727
      0.14000000	     -3.82686034	     -7.45565268	      2.37369711	     -1.06089159	      0.97752945	     -0.26827490	      6.77936198	      7.60090315	     -3.28395100	    -14.58420851	      9.44746231	      0.30543181	      3.66406101	     -7.39401436	      2.31944952	     -8.82177553	     11.50837516	     -1.27858250	      3.27054548	      6.38570869	     -5.91118007
      0.15000000	     -3.82783245	     -7.45982021	      2.37328739	     -1.06091170	      0.97752554	     -0.26836646	      6.78231504	      7.59856430	     -3.28289887	    -14.58240991	      9.44703910	      0.30480086	      3.66604572	     -7.39166665	      2.31895783	     -8.82156260	     11.50874983	     -1.27920072	      3.26996692	      6.38720786	     -5.91098583
      0.16000000	     -3.82738752	     -7.46448025	      2.37243944	     -1.06092327	      0.97751976	     -0.26844921	      6.78303895	      7.59775720	     -3.28244804	    -14.58218786	      9.44688231	      0.30469512	      3.66612906	     -7.39016539	      2.31890152	     -8.82165759	     11.50885069	     -1.27931788	      3.27002485	      6.38538110	     -5.91127364
      0.17000000	     -3.83749950	     -7.46450349	      2.35902189	     -1.06097218	      0.97750392	     -0.26852946	      6.80318260	      7.59362200	     -3.24609843	    -14.59521023	      9.43044353	      0.29863989	      3.68109001	     -7.38189734	      2.31708466	     -8.83003921	     11.52118226	     -1.29197478	      3.27572685	      6.38163938	     -5.93157456
      0.18000000	     -3.87509516	     -7.46604330	      2.33523697	     -1.06104252	      0.97745248	     -0.26858763	      6.85223948	      7.59185013	     -3.20719005	    -14.60615604	      9.42578547	      0.27631496	      3.73418034	     -7.37462832	      2.29345942	     -8.85292401	     11.53863414	     -1.33633960	      3.30882406	      6.37475235	     -5.91472312
      0.19000000	     -3.87620821	     -7.47156919	      2.32495566	     -1.06107198	      0.97745088	     -0.26866704	      6.85498222	      7.59150238	     -3.20833886	    -14.60699089	      9.42589237	      0.27567488	      3.73550293	     -7.37269642	      2.29462642	     -8.85368731	     11.53828568	     -1.33774011	      3.30583827	      6.37321215	     -5.91886987
      0.20000000	     -3.88239079	     -7.47831871	      2.30799873	     -1.06113330	      0.97744222	     -0.26873935	      6.87818433	      7.59332922	     -3.19365948	    -14.63327440	      9.42169585	      0.27166355	      3.74565930	     -7.37131426	      2.28732158	     -8.85905258	     11.54719092	     -1.35375197	      3.30379562	      6.37395653	     -5.93411856
      0.21000000	     -3.90915217	     -7.48664202	      2.27460627	     -1.06121546	      0.97740502	     -0.26879526	      6.92745385	      7.59670597	     -3.16944008	    -14.66464560	      9.41658260	      0.26323820	      3.78598279	     -7.37103284	      2.26270796	     -8.88202199	     11.57319170	     -1.39765582	      3.32181758	      6.37653628	     -5.92777853
      0.22000000	     -3.91142696	     -7.49267224	      2.25768473	     -1.06125342	      0.97740897	     -0.26887253	      6.93034807	      7.59660442	     -3.17199904	    -14.66197286	      9.41689146	      0.26284895	      3.78889713	     -7.36840006	      2.26462239	     -8.88445018	     11.57286435	     -1.39948490	      3.31928896	      6.37438577	     -5.93129865
      0.23000000	     -3.96069449	     -7.50413622	      2.20853718	     -1.06135649	      0.97734454	     -0.26892475	      7.00970820	      7.60244068	     -3.13886893	    -14.70073552	      9.40439254	      0.25050367	      3.86162662	     -7.36940377	      2.21991923	     -8.92408095	     11.59611167	     -1.46831745	      3.36129455	      6.38190682	     -5.90929776
      0.24000000	     -3.96449854	     -7.50961698	      2.18626917	     -1.06142692	      0.97734492	     -0.26900836	      7.02872046	      7.60206529	     -3.12835241	    -14.71966738	      9.39597448	      0.24814816	      3.86962292	     -7.36448104	      2.22007592	     -8.93070097	     11.60025988	     -1.48114989	      3.35634826	      6.38083832	     -5.92771936
      0.25000000	     -3.96570006	     -7.51565785	      2.16331738	     -1.06147492	      0.97735020	     -0.26910111	      7.03351634	      7.60119586	     -3.13083115	    -14.71846814	      9.39444011	      0.24777409	      3.87193315	     -7.35976420	      2.22198641	     -8.93549153	     11.60193395	     -1.48360100	      3.35173849	      6.38078941	     -5.93282991
      0.26000000	     -3.99946878	     -7.52306606	      2.10359160	     -1.06159901	      0.97730258	     -0.26916922	      7.10429890	      7.60277491	     -3.09245616	    -14.76652225	      9.36844904	      0.23555420	      3.93735659	     -7.35465056	      2.15390892	     -8.99418299	     11.64485603	     -1.55986281	      3.37273572	      6.38790731	     -5.90049392
